<svg id="Ebene_2" data-name="Ebene 2" xmlns="http://www.w3.org/2000/svg" viewBox="0 0 404 404"><defs><style>.cls-1{fill:#379fc2;}.cls-2{fill:#1f8299;}.cls-3{fill:#b1b5b8;}.cls-4{fill:#ccc;}.cls-5{fill:#9d9d9c;}.cls-6{font-size:50px;font-family:Nunito-Black, Nunito;font-weight:800;}.cls-6,.cls-7{fill:#fff;}</style></defs><circle class="cls-1" cx="202" cy="202" r="202"/><path class="cls-2" d="M166.31,303,284.87,447.82C379.32,430.9,451,348.32,451,249a203.65,203.65,0,0,0-1.85-27.33l-73.61-89.95Z" transform="translate(-47 -47)"/><path class="cls-3" d="M377.66,132,254.05,101s-.16,309.21-.06,309.26l0,0a10.68,10.68,0,0,1,1.07-.63h0C269.28,400,351.21,343.26,361.82,304,373.44,261,380.83,138,377.66,132Z" transform="translate(-47 -47)"/><path class="cls-4" d="M130.44,132l123.61-31s.16,309.21.06,309.26l0,0a8.83,8.83,0,0,0-1.07-.63h0C238.82,400,156.9,343.26,146.29,304,134.67,261,127.27,138,130.44,132Z" transform="translate(-47 -47)"/><rect class="cls-5" x="102" y="133" width="210" height="72.24" rx="15"/><rect class="cls-1" x="106" y="136.72" width="202" height="64.56" rx="15"/><text class="cls-6" transform="translate(129.11 187.35)">GDPR</text><circle class="cls-7" cx="123" cy="151" r="3"/><circle class="cls-7" cx="123" cy="187" r="3"/><circle class="cls-7" cx="291" cy="151" r="3"/><circle class="cls-7" cx="291" cy="187" r="3"/></svg>